<svg width="24" height="24" viewBox="0 0 24 24" fill="none" xmlns="http://www.w3.org/2000/svg">
<path d="M2.0208 15.2725L2.8208 12.8725C2.8752 12.7092 3.02791 12.599 3.20001 12.5989H5.20001C5.42091 12.5989 5.60001 12.778 5.60001 12.9989V14.9989C5.60006 15.1979 5.45381 15.3666 5.25681 15.3949L2.4568 15.7949C2.438 15.7976 2.419 15.7989 2.4 15.7989C2.1791 15.7987 2.00016 15.6195 2.00031 15.3986C2.00036 15.3557 2.00725 15.3131 2.0208 15.2725ZM4.80001 14.6521V13.3989H3.48841L2.984 14.9113L4.80001 14.6521Z" fill="#2D2D2D"/>
<path d="M0.799999 7.39884C0.627899 7.39869 0.475199 7.28854 0.420799 7.12524L0.0207996 5.92524C0.00709915 5.88449 9.91821e-05 5.84184 0 5.79884V4.19884C0 3.97794 0.1791 3.79884 0.4 3.79884H18.3248C18.9865 2.65164 20.453 2.25809 21.6002 2.91984C22.3432 3.34839 22.8007 4.14114 22.8 4.99884V14.1988H23.6C23.8209 14.1988 24 14.3779 24 14.5988V19.3988C24 19.6197 23.8209 19.7988 23.6 19.7988H23.2V20.5988H23.6V21.3988H22V20.5988H22.4V19.7988H20.76C20.5391 20.8811 19.4827 21.5793 18.4004 21.3584C17.3182 21.1375 16.6199 20.0811 16.8408 18.9988C17.0617 17.9166 18.1182 17.2183 19.2004 17.4392C19.9858 17.5996 20.5996 18.2134 20.76 18.9988H21.6V16.5988H12.9656L12 17.5644V18.9988H12.84C13.0609 17.9166 14.1173 17.2183 15.1996 17.4392C16.2819 17.6601 16.9801 18.7166 16.7592 19.7988C16.5383 20.8811 15.4818 21.5793 14.3996 21.3584C13.6142 21.1981 13.0003 20.5843 12.84 19.7988H8V20.5988H8.4V21.3988H6.8V20.5988H7.2V19.7988H5.56C5.3402 20.8813 4.2845 21.5806 3.202 21.3608C2.41495 21.201 1.7998 20.5859 1.64 19.7988H0.4C0.1791 19.7988 0 19.6197 0 19.3988V15.3988C0 15.3479 0.00964928 15.2974 0.0283985 15.25L1.6284 11.25C1.68925 11.0982 1.8364 10.9987 2 10.9988H6.8C7.0209 10.9988 7.2 11.1779 7.2 11.3988V14.1988H14V11.7444C14.0015 10.4496 15.0508 9.40039 16.3456 9.39884H18V8.88244L10.332 6.19884H3.088L2.7792 7.12524C2.7248 7.28854 2.5721 7.39869 2.4 7.39884H2V8.19884C2 8.41974 1.8209 8.59884 1.6 8.59884C1.3791 8.59884 1.2 8.77794 1.2 8.99884C1.2 9.21974 1.3791 9.39884 1.6 9.39884C1.8209 9.39884 2 9.21974 2 8.99884H2.8C2.79985 9.66159 2.2625 10.1987 1.59975 10.1986C0.937 10.1984 0.399849 9.66109 0.4 8.99834C0.400099 8.48989 0.7206 8.03669 1.2 7.86719V7.39879H0.799999V7.39884ZM18.8 18.1988C18.1372 18.1988 17.6 18.7361 17.6 19.3988C17.6 20.0616 18.1372 20.5988 18.8 20.5988C19.4627 20.5988 20 20.0616 20 19.3988C20 18.7361 19.4627 18.1988 18.8 18.1988ZM14.8 20.5988C15.4627 20.5988 16 20.0616 16 19.3988C16 18.7361 15.4627 18.1988 14.8 18.1988C14.1372 18.1988 13.6 18.7361 13.6 19.3988C13.6 20.0616 14.1372 20.5988 14.8 20.5988ZM3.6 20.5988C4.26275 20.5988 4.8 20.0616 4.8 19.3988C4.8 18.7361 4.26275 18.1988 3.6 18.1988C2.93725 18.1988 2.4 18.7361 2.4 19.3988C2.4 20.0616 2.93725 20.5988 3.6 20.5988ZM6.4 11.7988H2.2708L0.799999 15.4756V16.9988H1.6V17.7988H0.799999V18.9988H1.64C1.8598 17.9163 2.9155 17.217 3.998 17.4368C4.78505 17.5966 5.4002 18.2118 5.56 18.9988H6.4V11.7988ZM22 4.99884C22 4.11519 21.2836 3.39884 20.4 3.39884C19.5163 3.39884 18.8 4.11519 18.8 4.99884V14.1988H22V4.99884ZM22.4 18.9988H23.2V16.5988H22.4V18.9988ZM7.2 18.9988H8V16.5988H7.2V18.9988ZM7.2 14.9988V15.7988H8.4C8.6209 15.7988 8.8 15.9779 8.8 16.1988V18.9988H11.2V17.3988C11.2 17.2927 11.2422 17.191 11.3172 17.116L12.5172 15.916C12.5922 15.841 12.6939 15.7988 12.8 15.7988H23.2V14.9988H7.2ZM16.4 10.1988H16.3456C15.4923 10.1997 14.8009 10.8912 14.8 11.7444V12.1988H16.4V10.1988ZM17.2 10.1988V12.5988C17.2 12.8197 17.0209 12.9988 16.8 12.9988H14.8V14.1988H18V10.1988H17.2ZM18 8.03524V6.19884H12.7536L18 8.03524ZM5.6 5.39884H18V4.59884H5.6V5.39884ZM3.2 5.39884H4.8V4.59884H3.2V5.39884ZM2.1116 6.59884L2.4 5.73404V4.59884H0.799999V5.73404L1.0884 6.59884H2.1116Z" fill="#2D2D2D"/>
</svg>
