<svg width="24" height="24" viewBox="0 0 24 24" fill="none" xmlns="http://www.w3.org/2000/svg">
<path d="M17.7522 15.5492L16.8122 15.3478L16.8089 15.3467L14.5544 14.8644C14.5696 14.754 14.5776 14.6427 14.5784 14.5312V13.4843C15.255 13.052 15.812 12.4565 16.198 11.7524C16.584 11.0484 16.7866 10.2585 16.7871 9.45563V8.6025H17.3022C17.3453 8.60252 17.3879 8.59405 17.4278 8.57757C17.4676 8.56109 17.5038 8.53692 17.5342 8.50645C17.5647 8.47598 17.5889 8.43979 17.6054 8.39997C17.6219 8.36015 17.6303 8.31747 17.6303 8.27437V7.14937C17.6303 7.10628 17.6219 7.0636 17.6054 7.02378C17.5889 6.98396 17.5647 6.94777 17.5342 6.9173C17.5038 6.88683 17.4676 6.86266 17.4278 6.84618C17.3879 6.8297 17.3453 6.82123 17.3022 6.82125H17.0654C17.0517 5.69319 16.661 4.60214 15.9555 3.72185C15.2499 2.84156 14.2701 2.22265 13.1721 1.96369V1.21875C13.1721 1.17565 13.1637 1.13297 13.1472 1.09315C13.1307 1.05333 13.1065 1.01715 13.0761 0.986676C13.0456 0.956202 13.0094 0.932033 12.9696 0.915552C12.9298 0.899071 12.8871 0.8906 12.844 0.890625H11.1565C11.0695 0.890625 10.986 0.925195 10.9245 0.986731C10.8629 1.04827 10.8284 1.13173 10.8284 1.21875V1.96369C9.73034 2.22265 8.75055 2.84156 8.04501 3.72185C7.33947 4.60214 6.94876 5.69319 6.93511 6.82125H6.6983C6.6552 6.82123 6.61252 6.8297 6.5727 6.84618C6.53288 6.86266 6.4967 6.88683 6.46622 6.9173C6.43575 6.94777 6.41158 6.98396 6.3951 7.02378C6.37862 7.0636 6.37015 7.10628 6.37017 7.14937V8.27437C6.37015 8.31747 6.37862 8.36015 6.3951 8.39997C6.41158 8.43979 6.43575 8.47598 6.46622 8.50645C6.4967 8.53692 6.53288 8.56109 6.5727 8.57757C6.61252 8.59405 6.6552 8.60252 6.6983 8.6025H7.21336V9.45563C7.2139 10.2585 7.4165 11.0484 7.8025 11.7524C8.1885 12.4565 8.74547 13.052 9.42211 13.4843V14.5312C9.42287 14.6427 9.43089 14.754 9.44611 14.8644L7.19161 15.3467H7.18917L6.24867 15.5481C5.67227 15.6732 5.15582 15.9913 4.78471 16.4497C4.4136 16.9082 4.21006 17.4795 4.20773 18.0694V22.7812C4.20773 22.8683 4.2423 22.9517 4.30384 23.0133C4.36537 23.0748 4.44883 23.1094 4.53586 23.1094H19.4646C19.5516 23.1094 19.6351 23.0748 19.6966 23.0133C19.7582 22.9517 19.7927 22.8683 19.7927 22.7812V18.0694C19.7902 17.4798 19.5866 16.9087 19.2156 16.4505C18.8446 15.9923 18.3283 15.6743 17.7522 15.5492ZM16.4091 6.82125H14.8596V4.89937C14.8596 4.81235 14.825 4.72889 14.7635 4.66736C14.702 4.60582 14.6185 4.57125 14.5315 4.57125C14.4445 4.57125 14.361 4.60582 14.2995 4.66736C14.2379 4.72889 14.2034 4.81235 14.2034 4.89937V6.82125H13.1721V2.63569C14.0924 2.88819 14.9058 3.43294 15.4896 4.18786C16.0735 4.94278 16.3962 5.86699 16.4091 6.82125ZM11.4846 1.54688H12.5159V6.82125H11.4846V1.54688ZM10.8284 2.63587V6.82125H9.79711V4.89937C9.79711 4.81235 9.76254 4.72889 9.701 4.66736C9.63947 4.60582 9.55601 4.57125 9.46898 4.57125C9.38196 4.57125 9.2985 4.60582 9.23696 4.66736C9.17543 4.72889 9.14086 4.81235 9.14086 4.89937V6.82125H7.59136C7.60428 5.86701 7.92697 4.94281 8.51081 4.18792C9.09466 3.43302 9.90802 2.88831 10.8284 2.63587ZM7.02642 7.4775H16.974V7.94625H7.02642V7.4775ZM7.87017 9.45563V8.6025H16.1309V9.45563C16.1309 10.5511 15.6957 11.6018 14.921 12.3764C14.1464 13.1511 13.0957 13.5863 12.0002 13.5863C10.9047 13.5863 9.85408 13.1511 9.07944 12.3764C8.3048 11.6018 7.86961 10.5511 7.86961 9.45563H7.87017ZM12.0002 14.2406C12.6619 14.2412 13.3165 14.104 13.9221 13.8375V14.5312C13.9221 15.041 13.7196 15.5298 13.3592 15.8902C12.9988 16.2506 12.5099 16.4531 12.0002 16.4531C11.4905 16.4531 11.0017 16.2506 10.6413 15.8902C10.2808 15.5298 10.0784 15.041 10.0784 14.5312V13.8375C10.684 14.104 11.3386 14.2412 12.0002 14.2406ZM4.86398 18.0694C4.86599 17.6298 5.0179 17.204 5.29463 16.8625C5.57135 16.5209 5.95631 16.284 6.38592 16.1908L6.93211 16.0738V22.4531H4.86398V18.0694ZM7.58836 15.9334L9.61336 15.4999C9.78575 15.9228 10.0672 16.2924 10.429 16.571C10.7908 16.8497 11.22 17.0274 11.6729 17.0861V22.4531H7.58836V15.9334ZM12.3284 22.4531V17.0861C12.7812 17.0275 13.2105 16.8497 13.5723 16.5711C13.9341 16.2924 14.2155 15.9228 14.3879 15.4999L16.4129 15.9334V22.4531H12.3284ZM19.1365 22.4531H17.0684V16.074L17.6147 16.191C18.0443 16.2842 18.4292 16.5211 18.7059 16.8626C18.9825 17.2042 19.1344 17.6298 19.1365 18.0694V22.4531Z" fill="#2D2D2D"/>
<path d="M18.3396 19.1359C18.2965 19.1358 18.2538 19.1443 18.214 19.1608C18.1742 19.1773 18.138 19.2014 18.1075 19.2319C18.0771 19.2624 18.0529 19.2986 18.0364 19.3384C18.0199 19.3782 18.0115 19.4209 18.0115 19.464V20.6368C18.0115 20.7238 18.046 20.8073 18.1076 20.8688C18.1691 20.9304 18.2526 20.9649 18.3396 20.9649C18.4266 20.9649 18.5101 20.9304 18.5716 20.8688C18.6332 20.8073 18.6677 20.7238 18.6677 20.6368V19.464C18.6677 19.377 18.6332 19.2935 18.5716 19.232C18.5101 19.1704 18.4266 19.1359 18.3396 19.1359Z" fill="#2D2D2D"/>
<path d="M10.4738 18.39H8.78632C8.69929 18.39 8.61583 18.4246 8.5543 18.4861C8.49276 18.5477 8.45819 18.6311 8.45819 18.7181C8.45819 18.8052 8.49276 18.8886 8.5543 18.9502C8.61583 19.0117 8.69929 19.0463 8.78632 19.0463H10.4738C10.5608 19.0463 10.6443 19.0117 10.7058 18.9502C10.7674 18.8886 10.8019 18.8052 10.8019 18.7181C10.8019 18.6311 10.7674 18.5477 10.7058 18.4861C10.6443 18.4246 10.5608 18.39 10.4738 18.39Z" fill="#2D2D2D"/>
</svg>
