<svg width="24" height="24" fill="none" xmlns="http://www.w3.org/2000/svg"><path d="M2.02 15.273l.8-2.4a.4.4 0 01.38-.274h2a.4.4 0 01.4.4v2a.4.4 0 01-.343.396l-2.8.4a.4.4 0 01-.436-.522zm2.78-.62v-1.254H3.488l-.504 1.512 1.816-.259z" fill="#2D2D2D"/><path d="M.8 7.399a.4.4 0 01-.38-.274l-.4-1.2A.4.4 0 010 5.8V4.2a.4.4 0 01.4-.4h17.925A2.398 2.398 0 0122.8 5v9.2h.8a.4.4 0 01.4.4v4.8a.4.4 0 01-.4.4h-.4v.8h.4v.8H22v-.8h.4v-.8h-1.64a2 2 0 110-.8h.84v-2.4h-8.634l-.966.965V19h.84a2 2 0 110 .8H8v.8h.4v.8H6.8v-.8h.4v-.8H5.56a2 2 0 01-3.92 0H.4a.4.4 0 01-.4-.4v-4a.42.42 0 01.028-.149l1.6-4A.4.4 0 012 10.999h4.8a.4.4 0 01.4.4v2.8H14v-2.455A2.348 2.348 0 0116.346 9.4H18v-.517L10.332 6.2H3.088l-.309.926A.4.4 0 012.4 7.4H2v.8a.4.4 0 01-.4.4.4.4 0 10.4.4h.8a1.2 1.2 0 11-1.6-1.132V7.4H.8zm18 10.8a1.2 1.2 0 100 2.4 1.2 1.2 0 000-2.4zm-4 2.4a1.2 1.2 0 100-2.4 1.2 1.2 0 000 2.4zm-11.2 0a1.2 1.2 0 100-2.4 1.2 1.2 0 000 2.4zm2.8-8.8H2.27L.8 15.476v1.523h.8v.8H.8v1.2h.84a2 2 0 013.92 0h.84v-7.2zm15.6-6.8a1.6 1.6 0 00-3.2 0v9.2H22v-9.2zm.4 14h.8v-2.4h-.8v2.4zm-15.2 0H8v-2.4h-.8v2.4zm0-4v.8h1.2a.4.4 0 01.4.4v2.8h2.4v-1.6a.4.4 0 01.117-.283l1.2-1.2a.4.4 0 01.283-.117h10.4v-.8h-16zm9.2-4.8h-.054c-.854 0-1.545.692-1.546 1.545v.455h1.6v-2zm.8 0v2.4a.4.4 0 01-.4.4h-2v1.2H18v-4h-.8zm.8-2.164V6.2h-5.246L18 8.035zM5.6 5.4H18v-.8H5.6v.8zm-2.4 0h1.6v-.8H3.2v.8zM2.112 6.6l.288-.865V4.599H.8v1.135l.288.865h1.024z" fill="#2D2D2D"/></svg>