<svg width="24" height="24" fill="none" xmlns="http://www.w3.org/2000/svg"><g clip-path="url(#clip0)" fill="#2D2D2D"><path d="M.076 2.202l1.6 2.8a.4.4 0 00.25.19l1.494.373 5.122 5.122.566-.566L3.906 4.92a.4.4 0 00-.186-.106l-1.435-.36L.922 2.068 2.091.9l2.387 1.364.36 1.435a.4.4 0 00.105.186l5.202 5.202.566-.566-5.122-5.122-.373-1.492a.4.4 0 00-.19-.251l-2.8-1.6a.4.4 0 00-.481.064l-1.6 1.6a.4.4 0 00-.069.482zm16.636 5.684L7.909 16.69l-.566-.566 8.803-8.803.566.566zM6.368 17a.4.4 0 00-.343-.194h-2.4A.4.4 0 003.28 17l-1.2 2.001a.4.4 0 000 .412l1.2 2a.4.4 0 00.343.195h2.401a.4.4 0 00.343-.194l1.2-2a.4.4 0 000-.413l-1.2-2zm-.57 3.808H3.852l-.96-1.6.96-1.601H5.8l.96 1.6-.96 1.6z"/><path d="M19.23 9.604a4.785 4.785 0 004.654-5.962.4.4 0 00-.671-.186l-2.49 2.489-1.977-.659-.66-1.976L20.579.82a.4.4 0 00-.188-.672 4.787 4.787 0 00-5.865 5.592l-8.763 8.763a4.717 4.717 0 00-.937-.098 4.802 4.802 0 104.801 4.802 4.708 4.708 0 00-.097-.937l2.098-2.098.917.917a.4.4 0 00.566 0l.2-.2a.448.448 0 11.635.635l-.2.2a.4.4 0 000 .566l4.773 4.773a3.23 3.23 0 104.588-4.547l-.02-.02-4.774-4.773a.4.4 0 00-.566 0l-.2.2a.448.448 0 01-.636-.634l.002-.001.2-.2a.4.4 0 000-.566l-.918-.917 2.098-2.098c.308.063.623.096.938.097zm1.572 13.605a2.42 2.42 0 01-.851-.156l3.125-3.125a2.426 2.426 0 01-2.274 3.28zm-4.533-10.4a1.249 1.249 0 001.76 1.758l4.49 4.494c.05.05.095.1.139.153l-3.421 3.421a2.347 2.347 0 01-.153-.138l-4.494-4.494a1.249 1.249 0 00-1.76-1.759l-.64-.64 3.438-3.434.64.639zm1.615-4.024L8.807 17.86a.4.4 0 00-.105.38 4.028 4.028 0 11-2.91-2.91.404.404 0 00.38-.105l9.075-9.076a.4.4 0 00.105-.38A3.982 3.982 0 0119.457.808l-2.11 2.111a.4.4 0 00-.098.41l.8 2.4a.4.4 0 00.254.253l2.4.8a.4.4 0 00.41-.096l2.11-2.11a3.981 3.981 0 01-4.961 4.104.4.4 0 00-.38.104h.002z"/><path d="M20.713 20.125l-.566.565-4.001-4 .566-.567 4.001 4.002z"/></g><defs><clipPath id="clip0"><path fill="#fff" d="M0 0h24v24H0z"/></clipPath></defs></svg>