<svg width="24" height="24" fill="none" xmlns="http://www.w3.org/2000/svg"><path d="M17.752 15.55l-.94-.202-.003-.001-2.255-.483a2.31 2.31 0 00.024-.333v-1.047a4.785 4.785 0 002.21-4.028v-.854h.514a.328.328 0 00.328-.328V7.15a.328.328 0 00-.328-.328h-.237a5.054 5.054 0 00-3.893-4.857V1.22a.328.328 0 00-.328-.328h-1.688a.328.328 0 00-.328.328v.745A5.054 5.054 0 006.935 6.82h-.237a.328.328 0 00-.328.328v1.125a.328.328 0 00.328.329h.515v.853a4.784 4.784 0 002.21 4.028v1.047c0 .112.008.223.023.333l-2.254.483h-.003l-.94.201a2.59 2.59 0 00-2.041 2.521v4.712a.328.328 0 00.328.328h14.929a.328.328 0 00.328-.328v-4.71a2.59 2.59 0 00-2.04-2.52zM16.41 6.82h-1.55V4.9a.328.328 0 00-.656 0v1.922h-1.03V2.636a4.402 4.402 0 013.236 4.185zm-4.924-5.274h1.03V6.82h-1.03V1.547zm-.657 1.089V6.82h-1.03V4.9a.328.328 0 10-.657 0v1.922H7.59a4.402 4.402 0 013.237-4.185zM7.026 7.477h9.948v.47H7.026v-.47zm.844 1.979v-.854h8.26v.854a4.13 4.13 0 11-8.26 0zM12 14.24a4.76 4.76 0 001.922-.403v.693a1.922 1.922 0 11-3.844 0v-.694A4.76 4.76 0 0012 14.24zm-7.136 3.828a1.931 1.931 0 011.522-1.878l.546-.117v6.38H4.864v-4.385zm2.724-2.136l2.025-.433a2.582 2.582 0 002.06 1.586v5.367H7.588v-6.52zm4.74 6.52v-5.367a2.582 2.582 0 002.06-1.586l2.025.433v6.52h-4.085zm6.809 0h-2.069v-6.379l.547.117a1.931 1.931 0 011.522 1.878v4.384z" fill="#2D2D2D"/><path d="M18.34 19.136a.326.326 0 00-.328.328v1.173a.328.328 0 10.656 0v-1.173a.328.328 0 00-.328-.328zm-7.866-.746H8.786a.328.328 0 000 .656h1.688a.328.328 0 000-.656z" fill="#2D2D2D"/></svg>