<svg width="24" height="24" fill="none" xmlns="http://www.w3.org/2000/svg"><path d="M22.71 0H1.312C.935 0 .59.21.417.546c-.175.34-.145.75.079 1.06L8.335 12.65l.008.012c.285.384.439.85.44 1.329v9.003a1 1 0 001.396.928l4.404-1.68c.395-.12.657-.493.657-.941v-7.31c0-.479.155-.945.44-1.33l.008-.01 7.838-11.044c.224-.31.255-.72.08-1.06A1.005 1.005 0 0022.71 0zm-8.013 11.939a3.468 3.468 0 00-.676 2.05v7.163l-4.02 1.533V13.99a3.467 3.467 0 00-.676-2.051l-7.61-10.72h20.593l-7.61 10.72z" fill="#2D2D2D"/></svg>