<svg version="1.0" xmlns="http://www.w3.org/2000/svg" width="2709.333" height="2709.333" viewBox="0 0 2032 2032"><path d="M1009.6 589.7c-.1.1-6.9.5-15.1.8-18.8.8-19.7.9-21.2 1.8-.8.5-1.3.3-1.3-.3s-.4-.9-.9-.6c-.5.3-3.3.8-6.2 1.1-3 .3-7 .7-8.9 1-1.9.2-6 .7-9 1.1-3 .4-6.4.8-7.5 1-1.1.2-3.8.6-6 .9-2.2.3-5.1.7-6.5 1-1.4.3-3.8.7-5.5 1-1.6.2-5.2.9-8 1.5-2.7.5-7.2 1.5-10 2-8.5 1.7-29.5 7-36.8 9.3-2.6.8-5 1.6-5.2 1.6-.3.1-1 .3-1.7.5-.7.3-3.8 1.2-6.8 2.1-3 .9-6.4 2-7.5 2.5-1.1.4-6.7 2.5-12.5 4.5-5.8 2.1-12.3 4.5-14.5 5.5-2.2.9-6 2.6-8.5 3.6-6.7 2.8-36.1 17.4-39 19.4-1.4 1-4.5 2.8-7 4.1-5.7 3.1-20.3 12.8-30 19.8-9.3 6.9-9 6.6-12.1 9.3-1.5 1.3-4.6 3.9-7 5.8-7.6 6.1-29.2 28.2-35.7 36.5-10.7 13.5-15.2 19.9-15.2 21.3 0 .6-.4 1.2-.8 1.4-2 .7-18.5 32.6-19.7 37.8 0 .3-1.1 3.5-2.3 7.1-2.6 7.7-2.5 7.1-5.7 21.9-1.4 6.3-2.7 14.3-2.9 17.6-.2 3.4-.5 6.6-.7 7-1 2.1.1 28.9 1.6 37.2.3 1.8.7 4.7 1 6.4.3 1.8 1.1 5.1 1.7 7.3.5 2.2 1.2 5 1.4 6.3.3 1.2 1.6 5.9 3.1 10.5 1.5 4.5 2.6 8.5 2.5 8.9-.1.5.3.8.8.8.6 0 1 .7 1 1.5 0 1.8 9.7 22.5 11.5 24.5.8.8 1.3 1.8 1.2 2.1-.2.7 11 18 15.2 23.4 1.7 2.2 4 5.2 5.1 6.6 1.1 1.4 3.1 3.8 4.4 5.2 1.4 1.5 2.3 2.7 2 2.7-.8 0 26.1 26.5 29.6 29.1 1.9 1.5 4.6 3.7 6 5 1.4 1.3 5.5 4.5 9 7.2 3.6 2.6 7 5.1 7.5 5.5 4.5 3.4 14.8 10.2 15.5 10.2.6 0 1 .3 1 .7 0 .5 1 1.3 2.3 1.9 1.2.6 5.9 3.4 10.5 6.2 4.5 2.8 8.2 4.9 8.2 4.6 0-.3 1.2.3 2.7 1.4 1.6 1.1 9.1 5 16.8 8.6 7.7 3.7 15.4 7.4 17 8.3 1.7 1 3.2 1.7 3.5 1.6.3 0 1.5.3 2.8.8 1.3.5 2.5.9 2.6.9.2 0 2.5 1 5.2 2.2 2.7 1.2 5.1 2.2 5.4 2.3.5 0 9.3 3.2 12.5 4.5 2.3.9 22.5 7.3 24 7.6 2.1.4 17.1 4.5 18.5 5.1.8.3 1.8.6 2.2.5.3-.1 3 .5 6 1.2 10.6 2.8 25.1 5.6 41.3 8 21.8 3.3 25.2 3.7 46.5 5.3 13 1 69.1 1 82 0 15.2-1.2 17-1.4 22.5-2 2.8-.4 7.4-.9 10.4-1.3 3-.3 6.3-.8 7.5-1 1.2-.2 4.1-.7 6.6-1 2.5-.3 5.2-.7 6-.9.8-.2 2.9-.6 4.5-.9 1.7-.3 4.6-.8 6.5-1.2 1.9-.3 4.4-.8 5.5-.9 1.1-.2 5.2-1.1 9-1.9 3.9-.9 8.1-1.9 9.5-2.2 1.4-.2 5.9-1.4 10-2.5s8.2-2.2 9-2.4c7.8-2 13.8-3.7 15.5-4.5 1.1-.5 4.3-1.6 7-2.4 4.8-1.3 24.4-8.6 33-12.1 8.2-3.3 18.7-8.1 27.5-12.5 10.2-5 23.4-12.1 24-12.9.6-.7 4.3-2.9 8.5-5 1.7-.8 3.2-1.7 3.5-2 .3-.3 5-3.6 10.5-7.3 5.5-3.6 11.1-7.6 12.5-8.7 1.4-1.1 3-2.4 3.5-2.8.6-.5 3-2.4 5.5-4.3 6.8-5.3 8.1-6.5 22.8-21 15.3-15.1 17.5-17.5 25-27.5 2.8-3.9 5.5-7.5 5.9-8 5.5-6.9 16.5-26.5 21.1-37.2 2.6-6.2 4.4-10.7 4.3-11.1-.1-.1.5-1.8 1.3-3.7 1.5-3.5 5.1-15.8 6-20.5.3-1.4.7-3.6 1-5 .3-1.3.8-4.2 1.1-6.5.3-2.2.8-5.4 1.2-7 .9-4.6 1.1-29.1.2-37-1.4-12.5-1.8-15.2-4.3-25.7-2.3-9.9-6-21.3-9.3-28.8-3.2-7.4-10.8-22.5-11.5-22.8-.5-.2-.8-.8-.8-1.2 0-.9-8-14.1-9-15-.4-.3-2.2-2.8-4-5.5-1.9-2.8-4.4-6.1-5.6-7.5-1.2-1.4-4.1-4.8-6.4-7.5-12.1-14.3-32.9-33.7-48.1-44.8-14.2-10.3-29.1-19.9-41.4-26.7-11.6-6.5-35.9-18.1-46-22-1.1-.4-4-1.7-6.5-2.8-2.5-1.1-5.6-2.3-7-2.7-2-.5-12.8-4.3-21-7.3-.8-.3-1.9-.6-2.5-.7-.5 0-1.7-.4-2.5-.7-2.7-1.1-13.5-4.2-15.5-4.5-1.1-.2-3.1-.7-4.5-1.2s-5-1.5-8-2.1c-3-.6-6.2-1.4-7-1.7-2-.8-4-1.2-6.7-1.5-1.3-.1-2.3-.5-2.3-.8 0-.3-1-.5-2.2-.6-2.1 0-5-.5-10.4-1.8-3.1-.6-9.5-1.8-12.4-2.1-1.4-.2-2.5-.4-2.5-.5 0-.1-1.1-.3-2.5-.5-6.4-.7-14.7-1.8-16.5-2.1-1.1-.2-4.2-.6-7-.9-2.7-.3-7.5-.8-10.5-1.1-15.7-1.6-66.4-3.7-67.4-2.7zm47.4 43.7c2.5.2 8.3.7 13 1.1 9 .7 12.3 1 18 1.9 1.9.3 5.6.8 8.2 1 2.6.3 5.8.8 7 1 2.2.5 7.8 1.5 12.4 2.1 3.8.5 13.9 2.6 16.9 3.5 1.7.5 4.4 1.1 6 1.4 1.7.2 4.5.9 6.3 1.5 1.8.5 3.3 1 3.5.9.7-.1 18.8 4.8 21.7 5.9.8.3 2.4.8 3.5 1 1.1.2 2.7.6 3.5 1 .8.3 1.7.7 2 .8.3.1 1.2.4 2 .8.8.3 4.4 1.5 8 2.7 12.1 4 26.4 10.1 43.5 18.5 19.6 9.7 25.2 12.8 35.3 19.6 4 2.7 7.7 4.9 8.2 4.9.6 0 1 .3 1 .7 0 .5 2.7 2.6 6 4.8 3.3 2.2 6 4.3 6 4.7 0 .5.7.8 1.5.8.7 0 1.8.6 2.2 1.3.4.6 2.6 2.5 4.8 4.2 2.2 1.6 10.3 9.2 18 16.8 10.9 10.9 13.6 14.1 12.3 14.6-1 .3-17.6.6-37 .5-33.9-.1-35.5 0-39.3 2-2.2 1.1-4.4 2.1-5 2.2-.5 0-4.6 1.8-9 3.9-13.6 6.4-24.7 11.5-25 11.5-.2 0-5.1 2.2-11 5-5.9 2.7-10.8 5-11 5-.2 0-3.5 1.4-7.2 3.1-3.7 1.8-9.5 4.4-12.8 5.9-3.3 1.5-8.6 3.9-11.7 5.4-3.1 1.4-6.2 2.6-6.7 2.6-.6 0-1.1.4-1.1 1 0 .5-.6 1-1.4 1-.8 0-5.8 2.1-11.3 4.6-9.4 4.4-14.2 6.6-15.3 6.9-.3 0-2.4 1.1-4.7 2.3-2.3 1.2-4.9 2.2-5.8 2.2-.8 0-1.5.4-1.5 1 0 .5-.5 1-1.2 1-.6 0-3.4 1.1-6.2 2.4-2.8 1.3-7.3 3.4-10.1 4.6-2.7 1.3-7.2 3.3-10 4.5-2.7 1.3-7 3.2-9.5 4.3-2.5 1.1-8.3 3.8-13 6-12.8 5.9-22.2 9.9-25 10.5l-2.6.6 2.9-8.7c1.5-4.8 3-9.8 3.2-11.2.2-1.4.8-3.7 1.4-5.3.6-1.5.8-2.7.6-2.7-.2 0 0-1.2.6-2.8.6-1.5 2.2-7 3.6-12.2 1.3-5.2 2.9-11.1 3.4-13 .5-1.9 1.1-4.3 1.4-5.2.2-1 1.6-6.2 3-11.5 4.7-17 4.1-21.8-2.9-25-3.2-1.4-6.8-1.7-22.5-1.7-17.2 0-19.1.2-23.2 2.2-7 3.4-12 10.7-13.6 19.7-.3 1.6-.8 3.7-1.3 4.5-.4.8-1 3.2-1.4 5.2l-.7 3.7H731.3l1.9-6.7c1-3.7 2-7.6 2.2-8.7.2-1.2 1.3-5.2 2.4-9 1.1-3.9 2.3-8.3 2.6-9.8.7-2.8.7-2.8 7.6-2.6 3.9.1 7.3-.1 7.6-.4.4-.3 1.5-.2 2.5.3 1.2.7 2 .7 2.4 0 .4-.6 1-.8 1.5-.5.9.6 55 .8 55.5.3.2-.2 5.6-.1 12 .2 6.4.3 11.8.3 12 0 .2-.3 16.4-.3 36 0s35.8.3 36 0c.2-.3 5.6-.3 12 0s11.8.4 11.9.2c.2-.1 15.9-.2 35-.3 31.1 0 35.1-.2 38.7-1.8 5.5-2.5 9.3-7.2 11.3-13.9 4.9-16.4 6.9-24.2 7.3-28.5.4-4.3.2-5-2.7-7.7-2.1-1.9-4.4-3-6.4-3.1-1.7-.1-56-.2-120.6-.4-64.6-.1-117.7-.3-118-.4-1.2-.3 40.3-22.2 43-22.7.6-.1 5.1-1.9 9.5-3.9 3.2-1.4 6.2-2.4 7-2.5.3 0 1.8-.6 3.3-1.3 3.5-1.8 21-7.8 32.7-11.2 14.7-4.3 20.1-5.7 28-7.2 1.7-.3 3.8-.9 4.8-1.4.9-.5 1.7-.8 1.7-.5 0 .2 1.7 0 3.8-.5 2-.6 5.1-1.2 6.7-1.4 1.7-.2 4.4-.6 6-1 1.7-.3 4.4-.8 6-1 1.7-.3 4.1-.7 5.5-1 5.4-1.1 21.9-3 33.5-4 2.8-.2 5-.4 5-.5 0-.1 4.5-.3 9.9-.6 5.5-.2 10.1-.6 10.3-.7.4-.5 53.1.2 58.3.7zm289.3 141.3c4.9 8.1 9.7 17.9 13.7 27.8 3.7 9.2 7.7 26.2 8.6 36.5.4 5.3.5 23.1 0 26-.2 1.4-.7 4.7-1.1 7.5-1.3 9.1-3.8 18.9-6.5 26-2.6 6.6-3.7 9.8-3.9 10.7-.1.5-1.1 2.5-2.2 4.5-1.2 2.1-3.7 6.6-5.5 10.1-3.7 7-9.4 15.5-10.6 16-.4.2-.8.8-.8 1.4 0 .5-1.7 3.1-3.7 5.6-2.1 2.6-4.5 5.5-5.3 6.5-.8 1.1-4.3 4.9-7.7 8.6-3.5 3.6-6.3 6.9-6.3 7.3 0 .5-.4.8-.9.8-.6 0-3.7 2.7-7 5.9-3.4 3.3-6.1 5.8-6.1 5.6 0-.2-1.1.6-2.5 1.9-1.3 1.3-5.9 4.9-10 8.1-8.9 6.8-5.4 7.7-30-7.5-9.3-5.8-19.6-12.1-22.9-14-3.2-1.9-7.3-4.4-9-5.5-1.8-1.1-5.9-3.6-9.2-5.6-3.2-2-12-7.3-19.4-11.9-7.4-4.6-17.1-10.5-21.5-13.2-4.4-2.7-8.7-5.3-9.5-5.9-15.8-9.8-34.4-20.9-35.1-20.9-.5 0-.9-.5-.9-1 0-.6-.4-1-1-1-.8 0-5.4-2.7-15-8.8-1.4-.9-2.8-1.5-3.2-1.4-.5.1-.8-.2-.8-.7 0-.5-1.3-1.4-3-2.1-1.6-.7-3-1.6-3-2.1s-.4-.9-1-.9c-.5 0-3-1.3-5.4-2.9l-4.5-2.8 7.8-3.7c4.4-2 8.4-3.6 9-3.6.6 0 1.1-.5 1.1-1 0-.6.9-1 1.9-1 1.1 0 2.2-.4 2.6-.9.3-.5 1.9-1.2 3.5-1.6 1.7-.4 3-1 3-1.3 0-.6 8-4.4 10-4.8.3 0 4.8-2.1 10-4.6 5.2-2.5 12.2-5.7 15.5-7.2 8.3-3.8 12.9-5.9 21-9.8 3.9-1.8 7.2-3.3 7.5-3.4.3 0 3.7-1.6 7.5-3.4 3.9-1.8 7.2-3.4 7.5-3.5.3-.1 4.6-2.1 9.5-4.4 5-2.4 9.5-4.4 10-4.5 1-.3 9.9-4.4 23-10.6 12.6-6 25.6-12 26-12 .2 0 5.2-2.3 11.2-5.1 5.9-2.8 13.1-6.1 15.8-7.4 15.8-7.4 25.5-11.9 29.5-13.6 2.5-1.1 6.8-3 9.5-4.4 2.8-1.3 5.3-2.5 5.7-2.5.4 0 2.2 2.6 4.1 5.7zm-373.7 68.4c.2.4 0 1-.6 1.4-.6.4-.8 1-.5 1.4.2.5-.4 3.6-1.5 6.9-1.1 3.4-1.9 6.5-1.9 6.9.1.4 0 1.5-.3 2.3-1.1 2.8-3.6 11.5-4.2 14.5l-.6 3H835.5c-70.1-.1-127.6-.3-127.9-.6-.3-.3.4-3.7 1.5-7.5s2.2-8.1 2.5-9.6c.3-1.4 1.4-5.7 2.5-9.5 1.1-3.7 2.2-7.5 2.4-8.3.2-.8.4-1.5.4-1.6.6-.5 255.3.1 255.7.7zm63.6 82.9c7.2 4.4 13.2 8 13.3 8 .2 0 6.8 4 14.7 8.8 8 4.9 15.1 9.2 15.9 9.6.8.4 2.3 1.2 3.4 1.9s5.4 3.2 9.5 5.7 7.7 4.8 7.8 5.2c.2.5.8.8 1.2.8.5 0 7.5 3.9 15.4 8.7 8 4.9 15.5 9.2 16.6 9.8 1.1.5 2 1.3 2 1.7 0 .5.5.8 1.2.8 1 0 7.5 3.8 20.3 11.9 2.2 1.4 4.2 2.6 4.5 2.6.3 0 5.6 3.1 11.7 6.9l11.3 6.9 33.2-.1c29.3 0 33 .2 31.3 1.5-5.7 4.1-39.7 19.8-55 25.3-12.4 4.4-30.1 10-32.2 10.2-1.3.1-2.3.6-2.3 1s-.3.7-.7.6c-.5-.1-6.8 1.3-14.1 3.1-7.4 1.8-14.3 3.4-15.5 3.7-1.2.2-3.3.6-4.7.9-1.4.2-3.8.7-5.5 1-1.6.3-3.9.7-5 .9-1.1.2-4 .7-6.5 1.1-2.5.4-5.4.9-6.5 1.1-3.3.6-10.8 1.7-14 2-1.6.1-3 .3-3 .4 0 .1-2.5.3-5.5.6s-7.3.6-9.5.8c-26.3 2.5-76.6 2.5-95 .2-1.6-.3-6.1-.7-10-1.1-9.3-.9-12.4-1.3-16-1.8-1.6-.3-5-.8-7.5-1.2-4.7-.7-5.1-.7-11-1.8-1.9-.4-4.6-.9-6-1.1-1.4-.2-3.6-.7-5-1-1.4-.3-3.7-.8-5.3-1-1.5-.3-3.5-.7-4.5-1-.9-.3-2.8-.8-4.2-1-9.7-2.1-21.9-5.3-26.7-7-2.4-.8-4.3-1.3-4.3-1 0 .3-.6.2-1.2-.3-.7-.4-2-.8-2.8-1-.8-.1-2.3-.6-3.5-1.2-1.1-.5-3.8-1.5-6-2.1-2.2-.6-4.9-1.5-6-1.9-1.1-.5-5.4-2.1-9.5-3.7-4.1-1.5-9.4-3.6-11.7-4.6-4.4-1.9-8.3-3.4-9.5-3.7-1.4-.4-34.3-17.3-34.8-18-.3-.3-2.1-1.4-4-2.5-4-2.1-23.2-14.6-24-15.6-.3-.3-2.1-1.7-4-3-4.5-3.2-6.6-4.9-10.3-8.3-1.7-1.5-3.3-2.7-3.7-2.7-1 0-25-24-28-28-1.4-1.8-3-3.8-3.5-4.4-3.7-3.9-10.5-13.7-10.5-15 0-.4 245.9 0 246.3.4.3.3-.3 3.7-1.4 7.5-1.1 3.9-2.2 7.7-2.4 8.6-.2.9-1.8 6.9-3.5 13.5-1.8 6.5-3.4 12.6-3.5 13.4-.2.8-.4 1.5-.5 1.5-.1 0-.3.7-.5 1.5s-1.4 5.8-2.8 11.1c-4 15.2-2.1 20.9 7.8 22.6 2.5.4 34.4.4 36.5 0 6.8-1.4 12.2-5.3 15-10.8 1.7-3.2 5.4-15.3 7.5-24.7.2-.9 1.2-4.4 2.1-7.7.9-3.3 1.7-6.5 1.8-7 .2-.6.8-3 1.5-5.5.8-2.5 1.5-5.2 1.6-6 .2-.8.4-1.5.5-1.5.1 0 .3-.7.5-1.5.5-2.2 1.4-5.7 1.9-7.8.3-.9 1.6-5.6 3-10.5 1.3-4.8 2.2-8.7 1.9-8.7-.3 0 0-.6.6-1.4.7-.8 1.1-2 1-2.8-.4-3.4.1-3.7 3.6-2.2 2 .8 9.4 5 16.7 9.4zM84 1272.8c-6 .6-14.6 2.5-15.7 3.4-.7.6-1.3.7-1.3.4 0-.4-2.8.8-6.2 2.6-8.5 4.4-19.1 15-20.4 20.3-.3 1.4-.9 2.5-1.3 2.5-1.1 0-7.1 18.4-9.6 29.5-.2.5-1 3.7-1.9 7-.9 3.3-1.9 6.8-2.1 7.7-.2 1-1.6 6.2-3 11.5-1.5 5.4-2.9 10.9-3.2 12.2-.2 1.4-.6 2.8-.9 3.3-.3.4-.7 1.7-1 2.8-.9 4.1-1.3 5.8-4.4 17-2.4 8.5-3.3 13.9-3.5 20.7-.1 5.1.1 9.3.5 9.3s1 1.3 1.3 3c.8 3.7 7.4 10.4 12.4 12.5 2.1.9 6.3 2.1 9.3 2.7 6.2 1.2 190.1 1.6 196 .4 6.3-1.2 8.7-4.4 12-16.1 2.8-9.6 3-10.5 3.5-14.8.3-3.4 0-4-2.8-5.7-3-1.9-6-1.9-95.4-1.7-61 .1-92.3-.1-92.3-.8 0-.6-.4-.4-.9.4-1.4 2.1-2-.8-.9-3.9.6-1.4 1.1-3.2 1.3-4.1.2-.8 1-3.9 1.9-6.7.8-2.9 1.2-5.2.9-5.2-.3 0 0-.7.7-1.5.6-.8.9-1.8.6-2.4-.3-.5.1-1.2 1-1.5.9-.3 43.5-.6 94.7-.6 92.5 0 93.2 0 96.6-2.1 1.9-1.1 3.9-2.6 4.6-3.2 1.2-1.3 3.4-6.7 4.1-10.5.3-1.3 1.1-4.9 1.9-8 2.6-9.9 1.7-13.6-3.7-14.7-1.8-.4-44.8-.8-95.5-.8H69l.4-2.1c.9-5.2 6-23.2 6.7-23.6.4-.3 4.5-.4 9.1-.2 4.6.1 8.8.2 9.3.2 17.3-.4 21.5-.4 21.5.4 0 .5.6.4 1.3-.1.6-.4 10-.7 20.7-.6 23.6.3 19.6.3 31.8 0 5.6-.1 10.2.2 10.2.7 0 .5.6.4 1.3-.1.6-.4 10-.7 20.7-.6 23.6.3 19.6.3 31.8 0 5.6-.1 10.2.2 10.2.6 0 .5.5.5 1.2.1.6-.4 5.2-.8 10.2-.9 13.9-.2 17.5-3.1 20.6-16.5.7-3 1.5-6 1.9-6.5.3-.6.6-1.5.7-2 .1-.6.5-2.4.8-4 .8-3.9-1-8.2-3.8-9.2-1.9-.6-185.6-1.2-191.6-.5zm213.5.7c-5.5 1.6-8.2 4.8-10.5 12.4-1.2 3.8-2.3 7.8-2.5 8.8-.2 1-.4 2-.5 2.3l-.5 1.5c-.1.5-.3 1.3-.5 1.7-.1.5-.4 1.2-.5 1.8-.1.5-.3 1.1-.5 1.2-.1.2-.3 1.2-.4 2.3-.2 1.1-3.8 14.8-8.1 30.5-4.2 15.7-7.9 29.4-8.1 30.6-.2 1.2-1 4-1.8 6.3-.9 2.2-1.3 4.1-1 4.1.2 0 0 .9-.6 1.9-.5 1.1-1.2 3.2-1.4 4.8-.2 1.5-.6 3.5-.9 4.3-.8 1.9-7.6 26.6-8.3 30-.3 1.4-1.3 5.3-2.4 8.8-1 3.5-1.6 7.5-1.4 8.9.7 3.7 4.1 6.3 8.3 6.4 19.4.5 185.2 0 190.1-.5 18.1-1.9 30.9-10.1 40-25.5 5.8-9.8 12.9-35.2 12.3-44.1-.3-5.1-1.6-9.7-3.3-11.5-2.2-2.4-2.6-4.5-.8-4.5 1.6 0 10.8-9.8 10.8-11.6 0-.8.4-1.4.9-1.4 1.3 0 6.8-15.4 9.4-26.5 3.5-14.7 2.8-25.8-1.8-31.9-4.7-6.2-7.9-8.1-17.5-10.7-5.8-1.6-193.3-1.9-198.5-.4zm177.7 39.5c-.6 2.8-3.2 12.9-4.7 18.6l-1.7 6.1H314l.6-2.6c.4-1.4 1.3-5.1 2.2-8.1 1.8-6.4 2-7 2.5-9 .2-.8.7-2.6 1.1-4l.7-2.5 77.2.1c61.8.1 77.1.3 76.9 1.4zm-17.2 64.8c0 .4-.9 3.9-2 7.7-1.1 3.9-2.2 7.9-2.5 9-.2 1.1-.8 3.3-1.3 5l-.8 3-77.6.3-77.5.2 2.9-10.2c3.3-11.5 3.6-12.8 3.7-14.6.1-.9 16.3-1.2 77.6-1.2 42.6 0 77.5.3 77.5.8zm85.1-104.7c-3.9.8-8.7 4.8-9.7 7.9-.4 1.4-.9 2.9-1 3.5-.3.8-7.7 27.6-9.8 35.5-3.6 13.3-6.9 25.8-7.1 27-.2.8-.4 1.5-.5 1.5-.1 0-.3.7-.5 1.5-.1.8-.8 3.5-1.6 6-.7 2.5-1.3 4.9-1.5 5.5-.1.5-.7 3-1.4 5.5s-1.4 5.6-1.7 6.9c-.2 1.4-.7 2.9-1 3.4-.3.6-1.7 5.1-3 10.1-2.9 11.4-2.8 11.2-4.3 16.6-.7 2.5-1.4 5.2-1.6 6-.1.8-1.6 6.4-3.3 12.4-3.2 11.7-3.2 15.1 0 17.8 2.4 2 2.5 2 16.4 1.9 10.3 0 11.6-.2 15-1.6 1.8-.8 5.9-5.1 6.1-6.5 0-.3.4-1.2.7-2 .4-.8.8-2.4 1-3.5.1-1.1.5-2.5.8-3 .4-.6 1-2.8 1.4-5 .4-2.2 1-4.5 1.5-5 .4-.6.7-1.7.8-2.5 0-.8.7-4.2 1.7-7.5.9-3.3 2-7.4 2.4-9l.7-3 78.4-.1c43.2-.1 80.3-.4 82.5-.7 18.4-2.8 29.8-10 39-24.7 3.1-4.9 8.9-19.9 8-20.8-.2-.3-.1-1 .5-1.6.5-.7 1.4-3.2 2-5.6.6-2.5 1.2-5.2 1.4-6 .2-.8 1.2-4.1 2.1-7.4.9-3.2 1.9-6.6 2-7.5.2-.9.4-1.7.5-1.9.3-.3.5-1 1.5-6.2 2.1-11.4.9-20.9-3.5-27-2.1-2.9-11-9.7-12-9.2-.3.2-2.7-.3-5.5-.9-3.8-1-28.5-1.3-99.7-1.3-52.1-.1-96 .2-97.7.5zm176.2 41.5c-.1 1.6-.9 5.6-1.8 8.9-2.1 7.8-2 7.5-5.1 18.5-1.5 5.2-2.7 10.1-2.7 10.7 0 .8-1.5 1.3-3.6 1.4-28.1.3-34.1.3-34.1-.4 0-.5-.5-.5-1.1-.1-1.6 1-38.9 1.1-38.9.1 0-.5-.5-.5-1.2-.1-1.6 1-14.8 1.1-14.8.1 0-.5-.5-.5-1.2-.1-1.6 1-14.8 1.1-14.8.1 0-.5-.5-.5-1.2-.1-1.6 1-14.8 1.1-14.8.1 0-.5-.5-.5-1.1-.1-.6.3-7.2.7-14.6.8l-13.5.1.6-3c.5-3.1.6-3.4 3.1-13 .8-3.3 1.7-6.7 1.9-7.5.2-.8 1-3.5 1.7-6s1.3-4.8 1.5-5.3c.1-.4.2-.8.3-1 .2-.1.4-1.3.7-2.6.2-1.4.8-2.9 1.3-3.5.7-.8 23.8-1.1 77.3-1h76.3l-.2 3zm97.7-41.5c-4.6.6-11.2 2-15.5 3.3-10 3.1-20.8 12.9-26.7 24.2-3.1 6-7.2 17.3-8.3 23.1-.2 1-.4 1.8-.5 1.8-.1 0-.3.7-.5 1.5-.8 4-4.6 18.7-5.2 20-.3.8-.7 1.9-.8 2.5-.2.5-1.1 3.9-2 7.5-.9 3.6-1.9 7.6-2.2 8.9-.2 1.4-.6 2.8-.9 3.3-.3.5-.7 2.1-1 3.6-.3 1.5-.7 3.4-1.1 4.2-.3.8-.7 1.9-.8 2.5-.2.5-1.1 3.9-2 7.5-.9 3.6-1.8 6.9-1.9 7.5-.1.5-.5 1.6-.9 2.2-.5.7-.6 1.3-.3 1.3.2 0-.2 2.2-.9 5s-1.2 8.6-1 13c.3 8.2 2.6 14.1 7.1 18.2 2.9 2.5 10 5.9 13.6 6.5 4.2.7 6.3 1.1 6.3 1.3 0 .1 36.1.2 80.3.3 44.1.1 80.2 0 80.2-.3s1.5-.5 3.3-.5c2.7-.1 6.4-.7 11.2-1.8 3.1-.8 12.5-5.1 12.5-5.7 0-.5.9-1.1 1.9-1.5 1.1-.3 4.3-2.9 7.1-5.8 8.6-8.7 15.6-25.3 20.6-49.2.3-1.7 1.1-3.6 1.6-4.3.6-.6.8-1.2.4-1.2-.3 0-.1-1.1.4-2.5s1.2-3.6 1.4-4.8c.4-2 2.1-8.4 6-22.5.8-2.9 1.5-5.5 1.5-5.7.1-.3.1-.6.2-.8 0-.1.2-.9.4-1.7.2-.8.9-3.3 1.5-5.5s1.2-4.7 1.5-5.5c4.5-17.3 5-27.9 1.6-35.1-1.2-2.6-3.2-5.6-4.4-6.7-2.9-2.6-9.7-6.2-11.9-6.2-1 0-1.8-.3-1.8-.8 0-.4-1-.8-2.2-.9-5.7-.6-162.9-.7-167.8-.2zm147.6 38.8c.8.1.4 2.9-1.2 8.3-1.2 4.6-2.5 9.4-2.8 10.8-.2 1.4-1.3 5.3-2.4 8.7-1.1 3.5-1.8 6.3-1.6 6.3.2 0-.1 1.2-.7 2.7-.6 1.6-1.3 3.6-1.5 4.5-.2 1-.6 2.6-.9 3.5-.2 1-1.1 4.5-2 7.8-.9 3.3-2 7.6-2.5 9.5-.5 1.9-1.8 6.9-3 11-3.1 11.3-3.2 11.4-3.5 13.5-.2 1.1-.4 2.2-.5 2.5-.1.3-.2.8-.1 1.2 0 .5-.9.8-2.2.9-2 0-118.1 0-142.8-.1h-10.6l1.2-4.8c.7-2.6 2.3-8.3 3.5-12.7 1.2-4.4 2.3-8.7 2.5-9.5.2-.8 1.1-3.9 1.9-6.8.8-2.8 1.2-5.2.9-5.2-.3 0 0-.7.7-1.5s.9-1.5.5-1.5-.3-.6.2-1.3c.6-.6 1.1-1.9 1.1-2.7.1-2 .8-4.9 2.1-8.3.6-1.5.8-2.7.5-2.7-.4 0-.1-.6.5-1.3.6-.8.8-1.6.5-2-.3-.3-.1-1.4.5-2.5.5-1 1.2-3 1.4-4.3.3-1.3 1.1-4.4 1.8-6.9s1.3-4.8 1.5-5.3c.1-.4.3-.9.4-1.2.3-.6.4-.9 1.4-6 .4-2.2 1.1-4.2 1.6-4.5.6-.4 148.9-.5 153.6-.1zm69.9-38.9c-7.5 1-11.4 5.6-14 16.6-.3 1-1.2 4.4-2.1 7.4-.9 3-1.7 6.4-1.9 7.5-.2 1.1-1.3 5.4-2.5 9.5s-2.3 7.9-2.4 8.5c-.2.5-.8 2.8-1.4 5-.6 2.2-1.3 5.1-1.6 6.5-.8 3.7-7.7 29.3-8.3 31-.3.8-.8 2.3-.9 3.2-.2.9-1.7 6.5-3.4 12.5-1.7 5.9-3.3 11.9-3.6 13.3-.3 1.4-.6 2.9-.7 3.5-.2.5-.6 1.6-1 2.2-.5.7-.6 1.3-.3 1.3s-.1 1.8-.9 4-1.2 4-.8 4c.3 0 0 .7-.7 1.5s-1 1.5-.7 1.5c.3 0 .1 1.5-.4 3.2-.6 1.8-1.1 3.7-1.2 4.3-.2.5-.6 1.6-1 2.2-.5.7-.6 1.3-.3 1.3.2 0 0 1.5-.5 3.2-2.5 8.5-1.9 12.7 2.2 14.9 3.6 1.9 23.9 1.6 29.1-.4 3.9-1.5 6.7-4.5 7.2-7.7.1-.3.4-1 .8-1.6.4-.6.9-2.1 1.2-3.5.3-1.9 6.1-23.6 11.3-42.4.3-1.1.7-3.2 1-4.8.3-1.5.8-2.7 1.2-2.7.3 0 2.6 1.2 5.1 2.6 5.5 3.2 10 5.8 13.1 7.6 1.3.7 2.6 1.5 2.9 1.8.5.5 3.6 2.5 11.5 7 1.7 1 6.7 4 11.3 6.9 4.6 2.8 8.8 5.1 9.3 5.1s.9.4.9 1c0 .5.5 1 1 1 .6 0 3.6 1.6 6.6 3.5 3 1.9 5.9 3.5 6.4 3.5.6 0 1 .4 1 .9s.6 1.1 1.3 1.3c.7.2 9.5 5.2 19.6 11.2l18.3 11 38.9-.1c21.4 0 39.2-.2 39.4-.5.4-.4-14.2-9.5-20.3-12.7-1.5-.8-2.9-1.7-3.2-2-.3-.3-2.2-1.5-4.2-2.6-2.1-1.1-3.8-2.3-3.8-2.7 0-.5-.4-.8-1-.8-.5 0-3.6-1.6-6.7-3.6-3.2-2-6.8-4.3-8-5-1.3-.8-2.6-1.5-3-1.5-.5 0-1.5-.6-2.3-1.4-.8-.7-7.6-5-15-9.5s-13.8-8.7-14.1-9.2c-.3-.5-.9-.9-1.3-.9-.7.2-6.9-2.9-7.6-3.8-.7-.8-3.9-2.8-7-4.3-1.4-.7-2.7-1.5-3-1.8-.3-.3-3.8-2.6-7.9-5-7.5-4.6-8.4-5.2-21.1-12.9-4-2.3-6.8-4.6-6.3-5 .7-.7 9.6-4.8 27.8-13.1 3.9-1.8 10.2-4.7 14-6.5 3.9-1.8 9.5-4.4 12.5-5.8 3-1.4 9.1-4.2 13.5-6.2 4.4-2.1 10.3-4.8 13-6 4.7-2.1 8.5-3.9 25.3-11.6 3.7-1.7 9.2-4.3 12.2-5.6 3-1.4 8-3.7 11-5.1 3-1.5 5.7-2.7 6-2.8.3 0 3.9-1.7 8-3.6 10.4-4.9 23.3-10.9 30.8-14.3 3.4-1.6 6.2-3.1 6.2-3.4 0-.3-17.7-.6-39.2-.5l-39.3.1-10.7 5.1c-6 2.8-10.8 4.8-10.8 4.5 0-.3-.6-.1-1.3.5-.7.6-6.2 3.3-12.3 6-12.4 5.6-20.7 9.4-27.9 12.7-6.7 3.1-13.1 6-32 14.5-8.8 4-16.9 7.7-18 8.3-1.1.6-2.4 1.2-3 1.3-.8.2-10.3 4.4-22 9.9-1.6.7-3.1 1.2-3.3 1-.2-.1.2-2.3.9-4.6.6-2.4 1.3-5.1 1.4-5.9.1-.8.5-2.2.8-3 .8-2.3 3.6-12.4 4.1-15.1.3-1.3.5-2.5.7-2.7.2-.2.3-.7 1.3-4.7.4-1.7 1-3.7 1.3-4.5.3-.8.7-2.2.8-3 .1-.8.9-4 1.6-7 2.9-11 .7-13.1-13.8-13.3-5.4-.1-11.6 0-13.8.3z"/><path d="M1279 1273.1c-1.6.4-3 .4-3 .2s-1.4.6-3.1 1.8c-2.7 1.9-5.8 6.9-6.5 10.5-.1.6-.9 3.6-1.7 6.5-.9 3-1.8 6.5-2.1 7.9-1.4 6.1-4.2 16.6-4.7 17.5-.4.5-1 2.8-1.4 5-.5 2.2-1 4.4-1.1 5-.2.5-1 3.5-1.9 6.5-.9 3-1.7 6.2-1.9 7-.2.8-1.1 4.2-2 7.5-.9 3.3-1.8 6.7-2.1 7.5-.2.8-1.5 5.8-3 11-1.4 5.2-2.8 10.6-3.1 12-.3 1.4-1.2 5-2.2 8-.9 3-1.6 5.7-1.7 6-1.2 6.1-1.8 8.7-2.3 9.5-.4.5-.8 1.7-.9 2.5-.1.8-1.7 7-3.6 13.7-4.1 15-4.2 18.8-.5 21.6 2.3 1.7 4.2 2 15 2 9.6 0 13.1-.4 15.6-1.7 2.9-1.5 6.3-5.4 6.9-8 .1-.6 2.1-7.6 4.3-15.6 2.3-8 4.3-15 4.4-15.5.2-.6.6-2.6 1-4.6l.8-3.6 79.1-.2c43.6 0 80.6-.3 82.2-.5 14.5-2.2 24-6.9 32.4-16.2 4.5-5.1 11.6-17.4 12.6-22.1.7-3.3 5.6-20.8 6.2-22.3.3-.8.8-2.4 1-3.5.8-3.8 1.1-5 1.3-5 .1 0 .3-.7.5-1.5.1-.8.8-3.3 1.3-5.5 6.1-22.6.8-36.2-16.2-41.6l-7.1-2.3-94.7-.1c-52.1 0-96.1.3-97.8.6zm175.6 40.5c0 1-.4 3-.9 4.4-.5 1.4-1 3.2-1.2 4-.4 2.2-3.6 13.3-4.2 15-.3.8-.7 2.2-.8 3-.1.8-1 4.3-2 7.7l-1.8 6.1-5.9.4c-3.2.2-5.8-.1-5.8-.5 0-.5-.5-.5-1.2-.1-1.6 1-14.8 1.1-14.8.1 0-.5-.5-.5-1.2-.1-1.6 1-38.8 1.1-38.8.1 0-.5-.5-.5-1.1-.1-1.6.9-62.9 1.1-62.9.1 0-.5-.5-.5-1.2-.1-1.1.7-20.7.8-21.4.1-.2-.2.3-2.8 1.2-5.7.9-3 1.7-6.2 1.9-7.2.2-1 1.4-5.3 2.5-9.6 1.2-4.2 2.3-8.4 2.5-9.2.2-.8.4-1.5.5-1.5.2 0 .5-1.4 1.4-5.3.3-1.2.7-2.5.9-3 .3-.4 35.1-.7 77.4-.6 75.4 0 76.8 0 76.9 2zm184.5-39.5c-6.6 1.7-10.9 3.4-12.1 4.8-.3.3-2.1 1.5-4.1 2.6-7.7 4.2-13 9.2-36.4 34-28.1 29.7-45.8 48.5-52.5 55.5-3 3.2-8.8 9.3-12.9 13.6-4.1 4.4-13.5 14.4-21 22.3s-15.8 16.6-18.4 19.5c-2.7 2.8-7.1 7.5-9.9 10.3-2.8 2.9-4.7 5.3-4.2 5.4.5 0 10.9.1 23.1.1l22.1.1 5.9-6.3c3.2-3.5 7.4-8 9.3-10 1.9-2 6.2-6.6 9.5-10.1l5.9-6.4h138.5l1.2 2.5c.6 1.4 2.4 5.9 4.1 10 1.6 4.1 3.6 9.1 4.5 11 .8 1.9 2 4.8 2.7 6.5l1.3 3 22.2-.1c12.2-.1 22.4-.4 22.8-.7.3-.4.1-1.7-.5-3-.6-1.2-3.7-8.5-6.8-16.2-9.6-24-10.7-26.6-14.3-34.7-1.2-2.6-2.1-5.2-2.1-5.8 0-.6-.4-1.8-.9-2.8-.6-.9-2.2-4.6-3.6-8.2-1.5-3.6-3.6-8.5-4.7-11s-2.1-5.2-2.3-6c-.3-1.3-2.8-7.6-5.5-13.5-.5-1.1-3.5-8.3-6.6-16-3.1-7.7-6.3-15.6-7.1-17.5-.8-1.9-1.9-4.4-2.3-5.5-6.8-16.5-15.4-25.6-26.8-28-6.3-1.3-11.2-1.2-18.1.6zm3 37.1c.6 1.8 1.3 3.5 1.4 3.8.1.3.7 1.7 1.3 3.2.6 1.6 3.2 7.9 5.7 14 2.5 6.2 5 12.2 5.4 13.3 1 2.1 2.3 5.6 2.6 6.5 0 .3 1.1 2.7 2.3 5.4 1.2 2.7 2.2 5.2 2.2 5.6 0 .4.7 2 1.5 3.6s1 3.1.6 3.4c-.8.4-82.5.5-84 .1-.2 0 .9-1.4 2.5-2.9 1.6-1.6 7.9-8.2 14.1-14.8 6.1-6.5 13.9-14.8 17.3-18.4 3.4-3.6 10.3-10.9 15.3-16.3 5-5.3 9.4-9.7 9.8-9.7.4 0 1.3 1.5 2 3.2zm156.7-37.9c-5.5 1.3-7.7 4.5-11 15.9-1.6 5.7-3.1 11.2-3.3 12.3-.4 2.2-.4 2.4-3.5 13.5-1.1 4.1-2.3 8.2-2.5 9-.2.8-2.2 8.3-4.3 16.6-2.2 8.4-4.2 15.6-4.5 16.1-.3.5-.9 2.5-1.2 4.4-.3 1.9-1.3 5.8-2.2 8.8-.8 2.9-1.6 5.9-1.8 6.5-.1.6-.5 1.8-.8 2.6-.5 1.3-3.4 13.1-4.2 17-.2.8-.4 1.5-.5 1.5-.1 0-.3.7-.5 1.5-.8 3.4-1.6 6.1-5.1 19-4.3 16-4.4 16.7-2.7 20.2 1.7 3.6 3.8 4.1 17.4 4 9 0 12.4-.4 15-1.7 3.3-1.7 5.9-3.9 5.9-4.9 0-.2.4-1.5.9-2.8.5-1.3 1-2.8 1.1-3.3.1-.6.6-2 1.1-3.3.5-1.2 1.1-3.3 1.3-4.5 1.2-5.5 1.5-6.8 2.1-7.8.4-.5.8-2 1-3.2.1-1.2 1-4.7 1.9-7.8.9-3.1 1.8-6.5 2-7.5.6-3.2 2.7-10.8 3.3-12.4.8-2 1-2.7 1.2-4.5.1-1.3 9.5-1.5 78.2-1.5 44.9 0 77.8.4 77.5.9-.3.5-2.4 7.8-4.7 16.2-2.2 8.5-5.2 19.4-6.5 24.4-1.4 4.9-2.7 10.1-3 11.5-.2 1.4-.6 3-.8 3.6-.2.5.2 2.4.9 4.1 1 2.3 2.2 3.3 4.7 3.9 4 .9 23 .8 26.1-.2 3.3-1 7.8-4.4 7.2-5.5-.4-.5-.2-.9.3-.9.8 0 1.7-2.1 2.7-6.5 1.4-5.7 3.8-14.5 4.5-16.5.5-1.4 1.2-3.6 1.4-5 .3-1.4 1.6-6.6 3-11.5 1.4-5 2.6-9.1 2.6-9.3 0-.4.1-.7 2.6-9.7 1.3-5 2.6-9.7 2.8-10.5.2-.8.9-3.5 1.6-6 .7-2.5 1.4-5.2 1.6-6 .2-.8 2.2-8.3 4.4-16.5 2.3-8.3 4.3-15.9 4.5-17 .3-1.1 1.8-6.7 3.4-12.5 2.5-9.3 3.8-14.2 4.7-17.5.1-.6.8-3.1 1.5-5.6 1-3.8 1-5.2 0-7.8-1.7-3.9-4.3-4.6-16.9-4.5-16.9.3-16.2.2-19.6 3.6-2.7 2.8-3.8 5.5-7.1 18.3-2.2 8.2-4 15.3-4.1 15.7-.1.5-.2.9-.4 1-.1.2-.3 1-.5 1.8s-1.1 4.2-2 7.5c-.9 3.3-1.8 7-2 8.1-.2 1.2-.9 3.2-1.6 4.5-.7 1.3-1.2 2.5-1.1 2.6.1.2.2.7.2 1.2 0 .4-34.5.8-77.5.8-42.6 0-77.5-.4-77.5-.8 0-.5.6-2.8 1.4-5.1.7-2.4 2.1-7.5 3.1-11.3 1-3.9 2.2-7.5 2.6-8.1.5-.6.7-1.3.4-1.6-.3-.2.4-3.6 1.5-7.4 1.1-3.8 2.2-7.8 2.5-8.9.2-1.1 1.1-4.5 2-7.7.8-3.1 1.4-6.6 1.2-7.8-.5-3-3.3-6-5.9-6.1-10.7-.5-23.1-.3-26 .4z"/></svg>